<svg width="28" height="43" viewBox="0 0 28 43" fill="none" xmlns="http://www.w3.org/2000/svg">
<path d="M17.4963 42.9936C17.1657 42.9936 16.8379 42.87 16.5799 42.612C14.3331 40.3652 14.4299 29.4889 15.693 24.1945H9.46875C8.727 24.1945 8.125 23.5925 8.125 22.8508C8.125 14.7318 13.1748 3.80714 16.5799 0.399395C17.1039 -0.124668 17.9559 -0.124668 18.4799 0.399395C19.004 0.923457 19.004 1.77539 18.4799 2.29946C15.9429 4.83914 11.3822 14.1137 10.8609 21.507H17.5312C17.9908 21.507 18.4181 21.7408 18.6654 22.1278C18.9126 22.5175 18.9449 23.004 18.7487 23.4178C17.1013 26.9411 17.1658 39.2526 18.4826 40.7146C18.9718 41.2548 18.961 42.1121 18.4316 42.612C18.1682 42.8646 17.8296 42.9936 17.4963 42.9936Z" fill="#FF0043"/>
<path d="M13.4999 32.2571C10.9414 32.2571 6.29474 31.5288 0.927807 29.4809C0.234432 29.2175 -0.112255 28.4408 0.15112 27.7475C0.414495 27.0514 1.19118 26.6993 1.88724 26.9708C6.91824 28.8896 11.2881 29.5696 13.4999 29.5696C15.7117 29.5696 20.0816 28.8896 25.1153 26.9708C25.8033 26.702 26.5854 27.0487 26.8487 27.7475C27.1148 28.4408 26.7681 29.2175 26.0721 29.4809C20.7051 31.5288 16.0584 32.2571 13.4999 32.2571Z" fill="#FF0043"/>
<path d="M4.09375 16.1321C3.352 16.1321 2.75 15.5301 2.75 14.7883V12.1008C2.75 11.3591 3.352 10.7571 4.09375 10.7571C4.8355 10.7571 5.4375 11.3591 5.4375 12.1008V14.7883C5.4375 15.5301 4.8355 16.1321 4.09375 16.1321Z" fill="#FF0043"/>
<path d="M20.2188 16.1321C19.477 16.1321 18.875 15.5301 18.875 14.7883V12.1008C18.875 11.3591 19.477 10.7571 20.2188 10.7571C20.9605 10.7571 21.5625 11.3591 21.5625 12.1008V14.7883C21.5625 15.5301 20.9605 16.1321 20.2188 16.1321Z" fill="#FF0043"/>
</svg>
